<?xml version="1.0" encoding="iso-8859-1"?>
<!-- Generator: Adobe Illustrator 16.0.0, SVG Export Plug-In . SVG Version: 6.00 Build 0)  -->
<!DOCTYPE svg PUBLIC "-//W3C//DTD SVG 1.1//EN" "http://www.w3.org/Graphics/SVG/1.1/DTD/svg11.dtd">
<svg version="1.1" xmlns="http://www.w3.org/2000/svg" xmlns:xlink="http://www.w3.org/1999/xlink" x="0px" y="0px" width="400px"
	 height="133px" viewBox="0 0 400 133" style="enable-background:new 0 0 400 133;" xml:space="preserve">

<g id="Layer_2">
	<g>
		<g id="XMLID_2_">
			<g>
				<rect x="64.5" y="96.5" style="fill:#68FFF3;" width="13" height="12"/>
				<rect x="64.5" y="84.5" style="fill:#68FFF3;" width="13" height="12"/>
				<rect x="64.5" y="72.5" style="fill:#68FFF3;" width="13" height="12"/>
				<rect x="64.5" y="59.5" style="fill:#68FFF3;" width="13" height="13"/>
				<rect x="64.5" y="47.5" style="fill:#68FFF3;" width="13" height="12"/>
				<rect x="64.5" y="35.5" style="fill:#68FFF3;" width="13" height="12"/>
				<rect x="64.5" y="23.5" style="fill:#68FFF3;" width="13" height="12"/>
				<rect x="51.5" y="96.5" style="fill:#68FFF3;" width="13" height="12"/>
				<rect x="51.5" y="84.5" style="fill:#68FFF3;" width="13" height="12"/>
				<rect x="51.5" y="72.5" style="fill:#68FFF3;" width="13" height="12"/>
				<rect x="51.5" y="59.5" style="fill:#68FFF3;" width="13" height="13"/>
				<rect x="51.5" y="47.5" style="fill:#68FFF3;" width="13" height="12"/>
				<rect x="51.5" y="35.5" style="fill:#68FFF3;" width="13" height="12"/>
				<rect x="51.5" y="23.5" style="fill:#68FFF3;" width="13" height="12"/>
				<rect x="38.5" y="96.5" style="fill:#68FFF3;" width="13" height="12"/>
				<rect x="38.5" y="84.5" style="fill:#68FFF3;" width="13" height="12"/>
				<rect x="38.5" y="72.5" style="fill:#68FFF3;" width="13" height="12"/>
				<rect x="38.5" y="59.5" style="fill:#68FFF3;" width="13" height="13"/>
				<rect x="38.5" y="47.5" style="fill:#68FFF3;" width="13" height="12"/>
				<rect x="38.5" y="35.5" style="fill:#68FFF3;" width="13" height="12"/>
				<rect x="38.5" y="23.5" style="fill:#68FFF3;" width="13" height="12"/>
				<rect x="25.5" y="96.5" style="fill:#68FFF3;" width="13" height="12"/>
				<rect x="25.5" y="84.5" style="fill:#68FFF3;" width="13" height="12"/>
				<rect x="25.5" y="72.5" style="fill:#68FFF3;" width="13" height="12"/>
				<rect x="25.5" y="59.5" style="fill:#68FFF3;" width="13" height="13"/>
				<rect x="25.5" y="47.5" style="fill:#68FFF3;" width="13" height="12"/>
				<rect x="25.5" y="35.5" style="fill:#68FFF3;" width="13" height="12"/>
				<rect x="25.5" y="23.5" style="fill:#68FFF3;" width="13" height="12"/>
			</g>
			<g>
			</g>
		</g>
	</g>
	<animate attributeName="fill-opacity"
begin="0s" dur="1.3s"
values="1;0;0;0;0;0;" calcMode="linear"
repeatCount="indefinite" />
</g>
<g id="Layer_3">
	<g>
		<g id="XMLID_3_">
			<g>
				<rect x="129.5" y="96.25" style="fill:#68FFF3;" width="13" height="12"/>
				<rect x="129.5" y="84.25" style="fill:#68FFF3;" width="13" height="12"/>
				<rect x="129.5" y="72.25" style="fill:#68FFF3;" width="13" height="12"/>
				<rect x="129.5" y="59.25" style="fill:#68FFF3;" width="13" height="13"/>
				<rect x="129.5" y="47.25" style="fill:#68FFF3;" width="13" height="12"/>
				<rect x="129.5" y="35.25" style="fill:#68FFF3;" width="13" height="12"/>
				<rect x="129.5" y="23.25" style="fill:#68FFF3;" width="13" height="12"/>
				<rect x="116.5" y="96.25" style="fill:#68FFF3;" width="13" height="12"/>
				<rect x="116.5" y="84.25" style="fill:#68FFF3;" width="13" height="12"/>
				<rect x="116.5" y="72.25" style="fill:#68FFF3;" width="13" height="12"/>
				<rect x="116.5" y="59.25" style="fill:#68FFF3;" width="13" height="13"/>
				<rect x="116.5" y="47.25" style="fill:#68FFF3;" width="13" height="12"/>
				<rect x="116.5" y="35.25" style="fill:#68FFF3;" width="13" height="12"/>
				<rect x="116.5" y="23.25" style="fill:#68FFF3;" width="13" height="12"/>
				<rect x="103.5" y="96.25" style="fill:#68FFF3;" width="13" height="12"/>
				<rect x="103.5" y="84.25" style="fill:#68FFF3;" width="13" height="12"/>
				<rect x="103.5" y="72.25" style="fill:#68FFF3;" width="13" height="12"/>
				<rect x="103.5" y="59.25" style="fill:#68FFF3;" width="13" height="13"/>
				<rect x="103.5" y="47.25" style="fill:#68FFF3;" width="13" height="12"/>
				<rect x="103.5" y="35.25" style="fill:#68FFF3;" width="13" height="12"/>
				<rect x="103.5" y="23.25" style="fill:#68FFF3;" width="13" height="12"/>
				<rect x="90.5" y="96.25" style="fill:#68FFF3;" width="13" height="12"/>
				<rect x="90.5" y="84.25" style="fill:#68FFF3;" width="13" height="12"/>
				<rect x="90.5" y="72.25" style="fill:#68FFF3;" width="13" height="12"/>
				<rect x="90.5" y="59.25" style="fill:#68FFF3;" width="13" height="13"/>
				<rect x="90.5" y="47.25" style="fill:#68FFF3;" width="13" height="12"/>
				<rect x="90.5" y="35.25" style="fill:#68FFF3;" width="13" height="12"/>
				<rect x="90.5" y="23.25" style="fill:#68FFF3;" width="13" height="12"/>
				<rect x="77.5" y="96.25" style="fill:#68FFF3;" width="13" height="12"/>
				<rect x="77.5" y="84.25" style="fill:#68FFF3;" width="13" height="12"/>
				<rect x="77.5" y="72.25" style="fill:#68FFF3;" width="13" height="12"/>
				<rect x="77.5" y="59.25" style="fill:#68FFF3;" width="13" height="13"/>
				<rect x="77.5" y="47.25" style="fill:#68FFF3;" width="13" height="12"/>
				<rect x="77.5" y="35.25" style="fill:#68FFF3;" width="13" height="12"/>
				<rect x="77.5" y="23.25" style="fill:#68FFF3;" width="13" height="12"/>
				<rect x="64.5" y="96.25" style="fill:#68FFF3;" width="13" height="12"/>
				<rect x="64.5" y="84.25" style="fill:#68FFF3;" width="13" height="12"/>
				<rect x="64.5" y="72.25" style="fill:#68FFF3;" width="13" height="12"/>
				<rect x="64.5" y="59.25" style="fill:#68FFF3;" width="13" height="13"/>
				<rect x="64.5" y="47.25" style="fill:#68FFF3;" width="13" height="12"/>
				<rect x="64.5" y="35.25" style="fill:#68FFF3;" width="13" height="12"/>
				<rect x="64.5" y="23.25" style="fill:#68FFF3;" width="13" height="12"/>
			</g>
			<g>
			</g>
		</g>
	</g>
	<animate attributeName="fill-opacity"
begin="0s" dur="1.3s"
values="0;1;0;0;0;0;" calcMode="linear"
repeatCount="indefinite" />
</g>
<g id="Layer_4">
	<g>
		<g id="XMLID_10_">
			<g>
				<rect x="183.75" y="96.75" style="fill:#68FFF3;" width="13" height="12"/>
				<rect x="183.75" y="84.75" style="fill:#68FFF3;" width="13" height="12"/>
				<rect x="183.75" y="72.75" style="fill:#68FFF3;" width="13" height="12"/>
				<rect x="183.75" y="59.75" style="fill:#68FFF3;" width="13" height="13"/>
				<rect x="183.75" y="47.75" style="fill:#68FFF3;" width="13" height="12"/>
				<rect x="183.75" y="35.75" style="fill:#68FFF3;" width="13" height="12"/>
				<rect x="183.75" y="23.75" style="fill:#68FFF3;" width="13" height="12"/>
				<rect x="170.75" y="96.75" style="fill:#68FFF3;" width="13" height="12"/>
				<rect x="170.75" y="84.75" style="fill:#68FFF3;" width="13" height="12"/>
				<rect x="170.75" y="72.75" style="fill:#68FFF3;" width="13" height="12"/>
				<rect x="170.75" y="59.75" style="fill:#68FFF3;" width="13" height="13"/>
				<rect x="170.75" y="47.75" style="fill:#68FFF3;" width="13" height="12"/>
				<rect x="170.75" y="35.75" style="fill:#68FFF3;" width="13" height="12"/>
				<rect x="170.75" y="23.75" style="fill:#68FFF3;" width="13" height="12"/>
				<rect x="157.75" y="96.75" style="fill:#68FFF3;" width="13" height="12"/>
				<rect x="157.75" y="84.75" style="fill:#68FFF3;" width="13" height="12"/>
				<rect x="157.75" y="72.75" style="fill:#68FFF3;" width="13" height="12"/>
				<rect x="157.75" y="59.75" style="fill:#68FFF3;" width="13" height="13"/>
				<rect x="157.75" y="47.75" style="fill:#68FFF3;" width="13" height="12"/>
				<rect x="157.75" y="35.75" style="fill:#68FFF3;" width="13" height="12"/>
				<rect x="157.75" y="23.75" style="fill:#68FFF3;" width="13" height="12"/>
				<rect x="144.75" y="96.75" style="fill:#68FFF3;" width="13" height="12"/>
				<rect x="144.75" y="84.75" style="fill:#68FFF3;" width="13" height="12"/>
				<rect x="144.75" y="72.75" style="fill:#68FFF3;" width="13" height="12"/>
				<rect x="144.75" y="59.75" style="fill:#68FFF3;" width="13" height="13"/>
				<rect x="144.75" y="47.75" style="fill:#68FFF3;" width="13" height="12"/>
				<rect x="144.75" y="35.75" style="fill:#68FFF3;" width="13" height="12"/>
				<rect x="144.75" y="23.75" style="fill:#68FFF3;" width="13" height="12"/>
				<rect x="131.75" y="96.75" style="fill:#68FFF3;" width="13" height="12"/>
				<rect x="131.75" y="84.75" style="fill:#68FFF3;" width="13" height="12"/>
				<rect x="131.75" y="72.75" style="fill:#68FFF3;" width="13" height="12"/>
				<rect x="131.75" y="59.75" style="fill:#68FFF3;" width="13" height="13"/>
				<rect x="131.75" y="47.75" style="fill:#68FFF3;" width="13" height="12"/>
				<rect x="131.75" y="35.75" style="fill:#68FFF3;" width="13" height="12"/>
				<rect x="131.75" y="23.75" style="fill:#68FFF3;" width="13" height="12"/>
				<rect x="118.75" y="96.75" style="fill:#68FFF3;" width="13" height="12"/>
				<rect x="118.75" y="84.75" style="fill:#68FFF3;" width="13" height="12"/>
				<rect x="118.75" y="72.75" style="fill:#68FFF3;" width="13" height="12"/>
				<rect x="118.75" y="59.75" style="fill:#68FFF3;" width="13" height="13"/>
				<rect x="118.75" y="47.75" style="fill:#68FFF3;" width="13" height="12"/>
				<rect x="118.75" y="35.75" style="fill:#68FFF3;" width="13" height="12"/>
				<rect x="118.75" y="23.75" style="fill:#68FFF3;" width="13" height="12"/>
			</g>
			<g>
			</g>
		</g>
	</g>
	<animate attributeName="fill-opacity"
begin="0s" dur="1.3s"
values="0;0;1;0;0;0;" calcMode="linear"
repeatCount="indefinite" />
</g>
<g id="Layer_5">
	<g>
		<g id="XMLID_4_">
			<g>
				<rect x="248.5" y="96.5" style="fill:#68FFF3;" width="13" height="12"/>
				<rect x="248.5" y="84.5" style="fill:#68FFF3;" width="13" height="12"/>
				<rect x="248.5" y="72.5" style="fill:#68FFF3;" width="13" height="12"/>
				<rect x="248.5" y="59.5" style="fill:#68FFF3;" width="13" height="13"/>
				<rect x="248.5" y="47.5" style="fill:#68FFF3;" width="13" height="12"/>
				<rect x="248.5" y="35.5" style="fill:#68FFF3;" width="13" height="12"/>
				<rect x="248.5" y="23.5" style="fill:#68FFF3;" width="13" height="12"/>
				<rect x="235.5" y="96.5" style="fill:#68FFF3;" width="13" height="12"/>
				<rect x="235.5" y="84.5" style="fill:#68FFF3;" width="13" height="12"/>
				<rect x="235.5" y="72.5" style="fill:#68FFF3;" width="13" height="12"/>
				<rect x="235.5" y="59.5" style="fill:#68FFF3;" width="13" height="13"/>
				<rect x="235.5" y="47.5" style="fill:#68FFF3;" width="13" height="12"/>
				<rect x="235.5" y="35.5" style="fill:#68FFF3;" width="13" height="12"/>
				<rect x="235.5" y="23.5" style="fill:#68FFF3;" width="13" height="12"/>
				<rect x="222.5" y="96.5" style="fill:#68FFF3;" width="13" height="12"/>
				<rect x="222.5" y="84.5" style="fill:#68FFF3;" width="13" height="12"/>
				<rect x="222.5" y="72.5" style="fill:#68FFF3;" width="13" height="12"/>
				<rect x="222.5" y="59.5" style="fill:#68FFF3;" width="13" height="13"/>
				<rect x="222.5" y="47.5" style="fill:#68FFF3;" width="13" height="12"/>
				<rect x="222.5" y="35.5" style="fill:#68FFF3;" width="13" height="12"/>
				<rect x="222.5" y="23.5" style="fill:#68FFF3;" width="13" height="12"/>
				<rect x="209.5" y="96.5" style="fill:#68FFF3;" width="13" height="12"/>
				<rect x="209.5" y="84.5" style="fill:#68FFF3;" width="13" height="12"/>
				<rect x="209.5" y="72.5" style="fill:#68FFF3;" width="13" height="12"/>
				<rect x="209.5" y="59.5" style="fill:#68FFF3;" width="13" height="13"/>
				<rect x="209.5" y="47.5" style="fill:#68FFF3;" width="13" height="12"/>
				<rect x="209.5" y="35.5" style="fill:#68FFF3;" width="13" height="12"/>
				<rect x="209.5" y="23.5" style="fill:#68FFF3;" width="13" height="12"/>
				<rect x="196.5" y="96.5" style="fill:#68FFF3;" width="13" height="12"/>
				<rect x="196.5" y="84.5" style="fill:#68FFF3;" width="13" height="12"/>
				<rect x="196.5" y="72.5" style="fill:#68FFF3;" width="13" height="12"/>
				<rect x="196.5" y="59.5" style="fill:#68FFF3;" width="13" height="13"/>
				<rect x="196.5" y="47.5" style="fill:#68FFF3;" width="13" height="12"/>
				<rect x="196.5" y="35.5" style="fill:#68FFF3;" width="13" height="12"/>
				<rect x="196.5" y="23.5" style="fill:#68FFF3;" width="13" height="12"/>
				<rect x="183.5" y="96.5" style="fill:#68FFF3;" width="13" height="12"/>
				<rect x="183.5" y="84.5" style="fill:#68FFF3;" width="13" height="12"/>
				<rect x="183.5" y="72.5" style="fill:#68FFF3;" width="13" height="12"/>
				<rect x="183.5" y="59.5" style="fill:#68FFF3;" width="13" height="13"/>
				<rect x="183.5" y="47.5" style="fill:#68FFF3;" width="13" height="12"/>
				<rect x="183.5" y="35.5" style="fill:#68FFF3;" width="13" height="12"/>
				<rect x="183.5" y="23.5" style="fill:#68FFF3;" width="13" height="12"/>
			</g>
			<g>
			</g>
		</g>
	</g>
	<animate attributeName="fill-opacity"
begin="0s" dur="1.3s"
values="0;0;0;1;0;0;" calcMode="linear"
repeatCount="indefinite" />
</g>
<g id="Layer_6">
	<g>
		<g id="XMLID_5_">
			<g>
				<rect x="313.5" y="96.5" style="fill:#68FFF3;" width="13" height="12"/>
				<rect x="313.5" y="84.5" style="fill:#68FFF3;" width="13" height="12"/>
				<rect x="313.5" y="72.5" style="fill:#68FFF3;" width="13" height="12"/>
				<rect x="313.5" y="59.5" style="fill:#68FFF3;" width="13" height="13"/>
				<rect x="313.5" y="47.5" style="fill:#68FFF3;" width="13" height="12"/>
				<rect x="313.5" y="35.5" style="fill:#68FFF3;" width="13" height="12"/>
				<rect x="313.5" y="23.5" style="fill:#68FFF3;" width="13" height="12"/>
				<rect x="300.5" y="96.5" style="fill:#68FFF3;" width="13" height="12"/>
				<rect x="300.5" y="84.5" style="fill:#68FFF3;" width="13" height="12"/>
				<rect x="300.5" y="72.5" style="fill:#68FFF3;" width="13" height="12"/>
				<rect x="300.5" y="59.5" style="fill:#68FFF3;" width="13" height="13"/>
				<rect x="300.5" y="47.5" style="fill:#68FFF3;" width="13" height="12"/>
				<rect x="300.5" y="35.5" style="fill:#68FFF3;" width="13" height="12"/>
				<rect x="300.5" y="23.5" style="fill:#68FFF3;" width="13" height="12"/>
				<rect x="287.5" y="96.5" style="fill:#68FFF3;" width="13" height="12"/>
				<rect x="287.5" y="84.5" style="fill:#68FFF3;" width="13" height="12"/>
				<rect x="287.5" y="72.5" style="fill:#68FFF3;" width="13" height="12"/>
				<rect x="287.5" y="59.5" style="fill:#68FFF3;" width="13" height="13"/>
				<rect x="287.5" y="47.5" style="fill:#68FFF3;" width="13" height="12"/>
				<rect x="287.5" y="35.5" style="fill:#68FFF3;" width="13" height="12"/>
				<rect x="287.5" y="23.5" style="fill:#68FFF3;" width="13" height="12"/>
				<rect x="274.5" y="96.5" style="fill:#68FFF3;" width="13" height="12"/>
				<rect x="274.5" y="84.5" style="fill:#68FFF3;" width="13" height="12"/>
				<rect x="274.5" y="72.5" style="fill:#68FFF3;" width="13" height="12"/>
				<rect x="274.5" y="59.5" style="fill:#68FFF3;" width="13" height="13"/>
				<rect x="274.5" y="47.5" style="fill:#68FFF3;" width="13" height="12"/>
				<rect x="274.5" y="35.5" style="fill:#68FFF3;" width="13" height="12"/>
				<rect x="274.5" y="23.5" style="fill:#68FFF3;" width="13" height="12"/>
				<rect x="261.5" y="96.5" style="fill:#68FFF3;" width="13" height="12"/>
				<rect x="261.5" y="84.5" style="fill:#68FFF3;" width="13" height="12"/>
				<rect x="261.5" y="72.5" style="fill:#68FFF3;" width="13" height="12"/>
				<rect x="261.5" y="59.5" style="fill:#68FFF3;" width="13" height="13"/>
				<rect x="261.5" y="47.5" style="fill:#68FFF3;" width="13" height="12"/>
				<rect x="261.5" y="35.5" style="fill:#68FFF3;" width="13" height="12"/>
				<rect x="261.5" y="23.5" style="fill:#68FFF3;" width="13" height="12"/>
				<rect x="248.5" y="96.5" style="fill:#68FFF3;" width="13" height="12"/>
				<rect x="248.5" y="84.5" style="fill:#68FFF3;" width="13" height="12"/>
				<rect x="248.5" y="72.5" style="fill:#68FFF3;" width="13" height="12"/>
				<rect x="248.5" y="59.5" style="fill:#68FFF3;" width="13" height="13"/>
				<rect x="248.5" y="47.5" style="fill:#68FFF3;" width="13" height="12"/>
				<rect x="248.5" y="35.5" style="fill:#68FFF3;" width="13" height="12"/>
				<rect x="248.5" y="23.5" style="fill:#68FFF3;" width="13" height="12"/>
			</g>
			<g>
			</g>
		</g>
	</g>
	<animate attributeName="fill-opacity"
begin="0s" dur="1.3s"
values="0;0;0;0;1;0;" calcMode="linear"
repeatCount="indefinite" />
</g>
<g id="Layer_7">
	<g>
		<g id="XMLID_6_">
			<g>
				<rect x="363.25" y="96.5" style="fill:#68FFF3;" width="13" height="12"/>
				<rect x="363.25" y="84.5" style="fill:#68FFF3;" width="13" height="12"/>
				<rect x="363.25" y="72.5" style="fill:#68FFF3;" width="13" height="12"/>
				<rect x="363.25" y="59.5" style="fill:#68FFF3;" width="13" height="13"/>
				<rect x="363.25" y="47.5" style="fill:#68FFF3;" width="13" height="12"/>
				<rect x="363.25" y="35.5" style="fill:#68FFF3;" width="13" height="12"/>
				<rect x="363.25" y="23.5" style="fill:#68FFF3;" width="13" height="12"/>
				<rect x="350.25" y="96.5" style="fill:#68FFF3;" width="13" height="12"/>
				<rect x="350.25" y="84.5" style="fill:#68FFF3;" width="13" height="12"/>
				<rect x="350.25" y="72.5" style="fill:#68FFF3;" width="13" height="12"/>
				<rect x="350.25" y="59.5" style="fill:#68FFF3;" width="13" height="13"/>
				<rect x="350.25" y="47.5" style="fill:#68FFF3;" width="13" height="12"/>
				<rect x="350.25" y="35.5" style="fill:#68FFF3;" width="13" height="12"/>
				<rect x="350.25" y="23.5" style="fill:#68FFF3;" width="13" height="12"/>
				<rect x="337.25" y="96.5" style="fill:#68FFF3;" width="13" height="12"/>
				<rect x="337.25" y="84.5" style="fill:#68FFF3;" width="13" height="12"/>
				<rect x="337.25" y="72.5" style="fill:#68FFF3;" width="13" height="12"/>
				<rect x="337.25" y="59.5" style="fill:#68FFF3;" width="13" height="13"/>
				<rect x="337.25" y="47.5" style="fill:#68FFF3;" width="13" height="12"/>
				<rect x="337.25" y="35.5" style="fill:#68FFF3;" width="13" height="12"/>
				<rect x="337.25" y="23.5" style="fill:#68FFF3;" width="13" height="12"/>
				<rect x="324.25" y="96.5" style="fill:#68FFF3;" width="13" height="12"/>
				<rect x="324.25" y="84.5" style="fill:#68FFF3;" width="13" height="12"/>
				<rect x="324.25" y="72.5" style="fill:#68FFF3;" width="13" height="12"/>
				<rect x="324.25" y="59.5" style="fill:#68FFF3;" width="13" height="13"/>
				<rect x="324.25" y="47.5" style="fill:#68FFF3;" width="13" height="12"/>
				<rect x="324.25" y="35.5" style="fill:#68FFF3;" width="13" height="12"/>
				<rect x="324.25" y="23.5" style="fill:#68FFF3;" width="13" height="12"/>
				<rect x="311.25" y="96.5" style="fill:#68FFF3;" width="13" height="12"/>
				<rect x="311.25" y="84.5" style="fill:#68FFF3;" width="13" height="12"/>
				<rect x="311.25" y="72.5" style="fill:#68FFF3;" width="13" height="12"/>
				<rect x="311.25" y="59.5" style="fill:#68FFF3;" width="13" height="13"/>
				<rect x="311.25" y="47.5" style="fill:#68FFF3;" width="13" height="12"/>
				<rect x="311.25" y="35.5" style="fill:#68FFF3;" width="13" height="12"/>
				<rect x="311.25" y="23.5" style="fill:#68FFF3;" width="13" height="12"/>
				<rect x="298.25" y="96.5" style="fill:#68FFF3;" width="13" height="12"/>
				<rect x="298.25" y="84.5" style="fill:#68FFF3;" width="13" height="12"/>
				<rect x="298.25" y="72.5" style="fill:#68FFF3;" width="13" height="12"/>
				<rect x="298.25" y="59.5" style="fill:#68FFF3;" width="13" height="13"/>
				<rect x="298.25" y="47.5" style="fill:#68FFF3;" width="13" height="12"/>
				<rect x="298.25" y="35.5" style="fill:#68FFF3;" width="13" height="12"/>
				<rect x="298.25" y="23.5" style="fill:#68FFF3;" width="13" height="12"/>
			</g>
			<g>
			</g>
		</g>
	</g>
	<animate attributeName="fill-opacity"
begin="0s" dur="1.3s"
values="0;0;0;0;0;1;" calcMode="linear"
repeatCount="indefinite" />
</g>
<g id="Layer_8">
	<g>
		<g id="XMLID_7_">
			<g>
				<rect x="348.5" y="72.5" style="fill:#FFFFFF;" width="13" height="12"/>
				<rect x="348.5" y="60.5" style="fill:#FFFFFF;" width="13" height="12"/>
				<rect x="348.5" y="48.5" style="fill:#FFFFFF;" width="13" height="12"/>
				<rect x="335.5" y="84.5" style="fill:#FFFFFF;" width="13" height="12"/>
				<rect x="335.5" y="60.5" style="fill:#FFFFFF;" width="13" height="12"/>
				<rect x="335.5" y="36.5" style="fill:#FFFFFF;" width="13" height="12"/>
				<rect x="323.5" y="72.5" style="fill:#FFFFFF;" width="12" height="12"/>
				<rect x="323.5" y="60.5" style="fill:#FFFFFF;" width="12" height="12"/>
				<rect x="323.5" y="48.5" style="fill:#FFFFFF;" width="12" height="12"/>
				<rect x="297.5" y="84.5" style="fill:#FFFFFF;" width="13" height="12"/>
				<rect x="297.5" y="72.5" style="fill:#FFFFFF;" width="13" height="12"/>
				<rect x="297.5" y="60.5" style="fill:#FFFFFF;" width="13" height="12"/>
				<rect x="297.5" y="48.5" style="fill:#FFFFFF;" width="13" height="12"/>
				<rect x="297.5" y="36.5" style="fill:#FFFFFF;" width="13" height="12"/>
				<rect x="284.5" y="72.5" style="fill:#FFFFFF;" width="13" height="12"/>
				<rect x="284.5" y="60.5" style="fill:#FFFFFF;" width="13" height="12"/>
				<rect x="284.5" y="48.5" style="fill:#FFFFFF;" width="13" height="12"/>
				<rect x="271.5" y="84.5" style="fill:#FFFFFF;" width="13" height="12"/>
				<rect x="271.5" y="72.5" style="fill:#FFFFFF;" width="13" height="12"/>
				<rect x="271.5" y="60.5" style="fill:#FFFFFF;" width="13" height="12"/>
				<rect x="271.5" y="48.5" style="fill:#FFFFFF;" width="13" height="12"/>
				<rect x="271.5" y="36.5" style="fill:#FFFFFF;" width="13" height="12"/>
				<rect x="245.5" y="84.5" style="fill:#FFFFFF;" width="13" height="12"/>
				<rect x="245.5" y="72.5" style="fill:#FFFFFF;" width="13" height="12"/>
				<rect x="245.5" y="60.5" style="fill:#FFFFFF;" width="13" height="12"/>
				<rect x="245.5" y="48.5" style="fill:#FFFFFF;" width="13" height="12"/>
				<rect x="245.5" y="36.5" style="fill:#FFFFFF;" width="13" height="12"/>
				<rect x="219.5" y="72.5" style="fill:#FFFFFF;" width="13" height="12"/>
				<rect x="219.5" y="60.5" style="fill:#FFFFFF;" width="13" height="12"/>
				<rect x="219.5" y="48.5" style="fill:#FFFFFF;" width="13" height="12"/>
				<rect x="206.5" y="84.5" style="fill:#FFFFFF;" width="13" height="12"/>
				<rect x="206.5" y="36.5" style="fill:#FFFFFF;" width="13" height="12"/>
				<rect x="194.5" y="84.5" style="fill:#FFFFFF;" width="12" height="12"/>
				<rect x="194.5" y="72.5" style="fill:#FFFFFF;" width="12" height="12"/>
				<rect x="194.5" y="60.5" style="fill:#FFFFFF;" width="12" height="12"/>
				<rect x="194.5" y="48.5" style="fill:#FFFFFF;" width="12" height="12"/>
				<rect x="194.5" y="36.5" style="fill:#FFFFFF;" width="12" height="12"/>
				<rect x="168.5" y="84.5" style="fill:#FFFFFF;" width="13" height="12"/>
				<rect x="168.5" y="72.5" style="fill:#FFFFFF;" width="13" height="12"/>
				<rect x="168.5" y="60.5" style="fill:#FFFFFF;" width="13" height="12"/>
				<rect x="155.5" y="72.5" style="fill:#FFFFFF;" width="13" height="12"/>
				<rect x="155.5" y="48.5" style="fill:#FFFFFF;" width="13" height="12"/>
				<rect x="155.5" y="36.5" style="fill:#FFFFFF;" width="13" height="12"/>
				<rect x="142.5" y="84.5" style="fill:#FFFFFF;" width="13" height="12"/>
				<rect x="142.5" y="72.5" style="fill:#FFFFFF;" width="13" height="12"/>
				<rect x="142.5" y="60.5" style="fill:#FFFFFF;" width="13" height="12"/>
				<rect x="116.5" y="72.5" style="fill:#FFFFFF;" width="13" height="12"/>
				<rect x="116.5" y="60.5" style="fill:#FFFFFF;" width="13" height="12"/>
				<rect x="116.5" y="48.5" style="fill:#FFFFFF;" width="13" height="12"/>
				<rect x="103.5" y="84.5" style="fill:#FFFFFF;" width="13" height="12"/>
				<rect x="103.5" y="36.5" style="fill:#FFFFFF;" width="13" height="12"/>
				<rect x="90.5" y="72.5" style="fill:#FFFFFF;" width="13" height="12"/>
				<rect x="90.5" y="60.5" style="fill:#FFFFFF;" width="13" height="12"/>
				<rect x="90.5" y="48.5" style="fill:#FFFFFF;" width="13" height="12"/>
				<rect x="65.5" y="84.5" style="fill:#FFFFFF;" width="12" height="12"/>
				<rect x="52.5" y="84.5" style="fill:#FFFFFF;" width="13" height="12"/>
				<rect x="39.5" y="84.5" style="fill:#FFFFFF;" width="13" height="12"/>
				<rect x="39.5" y="72.5" style="fill:#FFFFFF;" width="13" height="12"/>
				<rect x="39.5" y="60.5" style="fill:#FFFFFF;" width="13" height="12"/>
				<rect x="39.5" y="48.5" style="fill:#FFFFFF;" width="13" height="12"/>
				<rect x="39.5" y="36.5" style="fill:#FFFFFF;" width="13" height="12"/>
			</g>
			<g>
			</g>
		</g>
	</g>
</g>
</svg>
